<svg xmlns="http://www.w3.org/2000/svg" width="1220" height="638" viewBox="0 0 1220 638" role="img" aria-label="Emily Lopez profile card">
<style>
.bg { fill: #0d1117; }
.panel { fill: #161b22; stroke: #30363d; stroke-width: 1; }
.title { fill: #58a6ff; font: 700 24px 'SFMono-Regular', Consolas, 'Liberation Mono', Menlo, monospace; }
.mono { fill: #c9d1d9; font: 18px 'SFMono-Regular', Consolas, 'Liberation Mono', Menlo, monospace; white-space: pre; }
.muted { fill: #8b949e; font: 16px 'SFMono-Regular', Consolas, 'Liberation Mono', Menlo, monospace; }
</style>
<rect class="bg" x="0" y="0" width="1220" height="638" rx="18" />
<rect class="panel" x="20" y="20" width="1180" height="598" rx="16" />
<text class="title" x="42" y="56">Emily Lopez — profile</text>
<text class="muted" x="42" y="84">Generated with Python → SVG</text>
<text class="mono" x="70" y="94"></text>
<text class="mono" x="430" y="94">Emily Lopez (@emi-ly015)</text>
<text class="mono" x="70" y="118"></text>
<text class="mono" x="430" y="118"></text>
<text class="mono" x="70" y="142"></text>
<text class="mono" x="430" y="142">Title: ................................. CS @ NYU</text>
<text class="mono" x="70" y="166"></text>
<text class="mono" x="430" y="166">Location: .......................... New York, NY</text>
<text class="mono" x="70" y="190"></text>
<text class="mono" x="430" y="190">Education: ................. B.S. Computer Science, NYU Tandon</text>
<text class="mono" x="70" y="214"></text>
<text class="mono" x="430" y="214"></text>
<text class="mono" x="70" y="238"></text>
<text class="mono" x="430" y="238">Languages: ................. Python, C++, Java, JavaScript, HTML</text>
<text class="mono" x="70" y="262"></text>
<text class="mono" x="430" y="262">: .............................. CSS, SQL (MySQL)</text>
<text class="mono" x="70" y="286"></text>
<text class="mono" x="430" y="286">ML/Frameworks: ............. NumPy, Pandas, scikit-learn, OpenCV</text>
<text class="mono" x="70" y="310">                       ♡  ╱|、</text>
<text class="mono" x="430" y="310">: .................................... Matplotlib</text>
<text class="mono" x="70" y="334">                          (˚ˎ 。7  </text>
<text class="mono" x="430" y="334">Developer Tools: ........... Git, GitHub, VS Code, Jupyter, CLion</text>
<text class="mono" x="70" y="358">                           |、˜〵          </text>
<text class="mono" x="430" y="358">: ................................. IntelliJ IDEA</text>
<text class="mono" x="70" y="382">                          じしˍ,)ノ</text>
<text class="mono" x="430" y="382"></text>
<text class="mono" x="70" y="406"></text>
<text class="mono" x="430" y="406">Email: ..................... 015emily.lopez@gmail.com</text>
<text class="mono" x="70" y="430"></text>
<text class="mono" x="430" y="430">LinkedIn: .................. linkedin.com/in/emily-lopez-/</text>
<text class="mono" x="70" y="454"></text>
<text class="mono" x="430" y="454">GitHub: .................... github.com/emilylopez</text>
<text class="mono" x="70" y="478"></text>
<text class="mono" x="430" y="478"></text>
<text class="mono" x="70" y="502"></text>
<text class="mono" x="430" y="502">GitHub Stats</text>
<text class="mono" x="70" y="526"></text>
<text class="mono" x="430" y="526">Repos: ............................ update me</text>
<text class="mono" x="70" y="550"></text>
<text class="mono" x="430" y="550">Commits: .......................... update me</text>
<text class="mono" x="70" y="574"></text>
<text class="mono" x="430" y="574">Stars: ............................ update me</text>
<text class="mono" x="70" y="598"></text>
<text class="mono" x="430" y="598">Followers: ........................ update me</text>
</svg>